<svg width="186" height="113" viewBox="0 0 186 113" fill="none" xmlns="http://www.w3.org/2000/svg">
<path d="M110.348 67.5724L114.067 60.7532L185.359 8.67902L168.621 45.8748L110.348 67.5724Z" fill="white"/>
<path d="M0 0L26.0371 44.015L88.0301 60.7532L101.049 82.4507L108.488 71.292L92.3696 52.6941L0 0Z" fill="white"/>
<path d="M26.0371 112.207L28.5168 107.868H42.7752L30.9966 99.1889C30.7899 97.3291 31.1205 93.1135 34.0962 91.1298H50.2144L47.7347 95.4693H37.1959C36.7826 95.6759 36.204 96.3372 37.1959 97.3291C38.1877 98.321 45.0483 102.702 48.3546 104.768L55.1738 91.1298H62.613L73.1518 112.207H60.1333L58.2735 107.868H65.0927L59.5133 95.4693L50.8343 112.207H26.0371Z" fill="#F6EE21"/>
<path d="M76.2514 112.207V91.1298H81.8308V107.868H96.7091V91.1298H119.647L117.167 95.4693H102.289V99.8088H115.307L113.447 103.528H102.289V107.868H119.647L117.167 112.207H99.8088L101.049 107.868H97.949L96.0892 112.207H76.2514Z" fill="#F6EE21"/>
<path d="M122.746 112.207V91.1298H128.326V107.868L133.285 99.8088H141.344L142.584 107.868L151.263 91.1298H158.082L168.621 112.207H155.603L153.743 107.868H160.562L154.363 95.4693L146.304 112.207H137.005L136.385 104.768L132.665 112.207H122.746Z" fill="#F6EE21"/>
</svg>
